<?xml version="1.0" standalone="yes"?>
<svg width="509" height="644">
<path style="stroke:#000000; fill:none;" d="M166 142C178.905 138.935 190.435 129.809 200 121L201 121L232 147C224.485 156.29 212.904 158.369 203 164C188.922 159.8 175.614 154.04 165 143L150 144L96 107L93 100C93 79.8302 98.5387 57.0593 116 44.6381C121.956 40.4016 130.112 39.2324 137 37.1165C151.638 32.6201 166.284 28.2198 181 24L195 35L205 24L211 28L204 37L209 36C210.366 39.5555 208.089 44.2995 205 40L205 39L205 38M180 25L173 53C165.117 39.9473 148.943 43.2694 139.09 52.3009C126.167 64.1451 124.172 79.9255 137 92L145 93L151 92C161.327 82.5459 170.895 67.0562 173 53M211 28C232.167 35.7054 255.786 50.4835 272 66L273 75L273 76L253 120L253 127L258 131L264 130C281.98 114.281 279.9 98.6367 286 78L273 66M151 93C136.667 106.193 111.714 121.397 98 100C98 84.1489 102.425 65.761 114.043 54.0401C122.757 45.2488 134.674 42.7752 146 39C156.718 35.4273 167.768 30.5137 179 29M195 36C182.403 52.0332 173.116 86.3959 189 103L189 104L187 103M204 37C188.653 55.5386 186.185 77.9998 188 101M135 92C105.568 81.988 136.039 47.4811 150 40L156 39C161.994 40.7015 167.14 42.015 170 48M200 99L191 90C189.992 66.471 203.238 45.0171 229 45C234.812 48.4443 241.879 52.3168 241 60C244.557 68.4429 240.32 74.885 238 83C231.421 90.5311 224.68 99.5024 214 100.815C209.511 101.366 205.361 99.6062 201 100L195 91L195 74C201.301 63.2147 207.134 56.4095 218 50L231 50L240 59M120 58C118.38 60.9406 117.314 61.4991 114 61C115.62 58.0594 116.686 57.5009 120 58M261 57L263 67C258.322 86.4236 247.228 114.208 226 120.56C217.27 123.173 207.683 118.03 200 121M258 70L257 74L256 71L258 70M286 78L302 97L302 104L341 142L339 149L344 154C341.355 160.052 336.996 166.962 331 170C325.672 177.217 316.874 180.269 309 184L306 184L299 181L286 194L271 192C262.663 184.39 257.992 177.411 254 167L249 182L241 182L240 183L240 187L238 189L222 193L226 198L220 205L216 196L206 203L198 191L192 191L200 169L208 171L239 152L232 148L232 148M116 98L114 104L116 98M203 101L204 101M190 105C192.145 111.467 196.787 114.968 202 119M302 107L302 115L339 148M222 110C222.71 113.058 222.669 114.268 220 116L222 110M108 111L106 113M301 116L301 121C308.278 126.545 327.602 140.669 328 150C332.447 151.467 334.137 149.372 337 146L337 146M199 118L201 120M300 122C294.292 136.507 285.04 148.195 273 158L267 160L292 179L299 181L303 178C311.504 176.465 317.14 169.859 323 164L331 170M235 150L203 168M280 152L297 167L298 167L314 151L322 158L326 157L336 165M239 153L255 161L264 159L265 159L266 160L267 161M255 161L255 166M262 162C265.878 172.115 269.891 183.807 282 186L289 177L289 177M203 165L200 168M207 168L209 169M207 171L199 191M210 199L219 190L222 193M222 191L223 192M224 191C230.208 196.469 239.967 203.888 236 213L230 208L228 215L233 217L225 225L219 226L231 233L237 237C244.411 227.288 252.954 215.5 249 203C245.153 200.367 242.454 199.33 238 201C247.277 212.503 240.015 223.904 231 233M220 192L216 196M193 193L186 207L187 213L197 225L161 239.681L106 260.939L74 275L73 282L87 286L76 295L77 307L88 317L88 323L71 333L74 338C73.9713 348.388 67.5109 356.997 67.1327 367C66.7499 377.125 77.6098 393.218 69 401L57 373C62.7392 369.489 62.6809 356.2 62 350L55 363L56 372M192 194L198 203L205 203M235 200L237 200M210 201L207 207L207 215L216 222L212 226L213 227L215 224M249 201L250 202M250 202L278 215L289 216L296 234L291 236L278 242L277 229L281 224L285 224L290 232L290 233L290 234L290 235M213 219C213.308 214.911 214.3 212.865 218 211L221 215L217 222M203 214L207 224L200 224L196 215L203 214M234 213L234 216L236 213L236 213M290 215L331 218L338 213L374 215L377 219L381 238L395 242C424.507 264.482 442.693 301.949 443 339L435 342C428.961 325.876 433.776 308.422 424 293L406 343L407 347L420 371L444 351L444 340M279 215C271.006 222.319 267.022 230.379 271 241M334 218L357 220L336 229L292 248.86L257 263L190 293L163 286L155 290L153 293L152 297L166 302L175 303L180 304L186 305L187 304L181 298L156 293M293 221L347 223M357 220L360 220M212 221L214 222M197 225L199 225M162 243L170 242L208 225L209 225L210 225L211 225M217 225L219 227M214 227C205.724 232.995 196.35 236.766 187 240.716C181.84 242.896 176.663 243.671 174 249L185 249L176 246M296 234L310 228L335 228M367 289L371 303L269 372C262.612 359.879 255.326 343.518 253 330L356 267L358 262L363 277L345 288L350 301L372 283L363 242L282 276.452L244 292L242 284C266.019 267.582 298.444 258.664 325 246.694C338.37 240.668 355.439 229.491 370 228L373 231L378 261L389 292L414 275L424 293M234 236L228 241L211 240.333L186 250M237 237L251 248L251 249L252 250L253 251M382 239L385 250C398.057 251.957 405.468 265.086 414 274M170 240L171 241M113 262L113 265L110 263L108 266L101 267L139 279L153 280L179 268.573L211 256L241 241M278 242L241 260L256 262M160 246L158 245L161 245M157 247L157 245L154 246M213 256L218 257L247 244M150 250L149 248L152 249L153 248L152 247M251 249L232 259L240 260M145 252L144 250L147 251L148 250L147 249M385 250C385.235 255.563 386.201 258.749 381 262L380 263M143 252L140 253L143 252M137 255L135 254L138 253L139 254M119 262L119 260L122 261L123 258L124 258L126 259L127 259L128 256L129 256L131 257L133 254L134 254L135 254L135 255M131 255L132 255M126 257L127 257M220 258L232 259M323 269C317.619 271.51 311.446 276.618 313 283L322 277L323 269L336 260L356 258L358 261M121 259L122 259M108 264L109 264M90 271C90.4355 273.504 91.1096 271.837 92 270L100 269L99 268L100 267L101 267M106 267L103 269M96 269L99 268M94 270L96 269M94 271L94 275L106 280L105 285L101 287L97 281L76 273M364 279L364 281L365 282L366 285L367 286M99 281L103 279M107 280L129 284L138 279M155 280L195 290M267 372L250 366L257 360C259.433 346.275 249.664 335.115 236 335L234 337L234 341L225 350C220.029 341.994 218.006 332.321 218 323C227.21 315.452 240.223 311.639 251 306.691C270.033 297.953 290.633 284.838 311 280M389 292L390 297L413 281L419 291L403 337L398 329C374.841 335.909 344.187 338.961 320 340M312 283L257 320L253 320L234 332L234 333L234 334L234 335M217 354L204 300L242 284M87 286L91 285L98 286M130 285L154 289M106 286L151 297M101 288C98.0129 293.597 98.8723 299.926 100 306C93.3653 300.612 87.7219 295.502 79 294M100 289C111.829 295.828 131.46 299.177 145 301C154.781 313.821 158.406 338.322 162 354L161 355L142 351C133.599 337.348 128.336 312.88 126 297M390 297L398 329M153 299L148 303M187 304C192.391 305.949 198.151 302.582 203 300M166 302L178 349L189 352L175 303M180 304L189.745 340L193 357L188 353M101 307L111 338L101 344L105 348L109 348L164 368L165 363L113 343L111 339M35 347L31 346L32 330L40 326L41 342L36 347L38 373L46 367L47 323L52 318L63 317L76 308M363 311L363 323L370 329L378 330M102 316L100 328L106 329M64 317L70 325L71 332M259 321L264 321M41 326L46 323L47 323M85 326L89 329L99 329M46 369L65 406L57 410L37 373L27 379C23.3365 366.606 22.6397 346.713 25 334L32 330M238 331L253 330M70 335L62 350M109 335L95 344C95.4109 363.803 103.628 386.927 109 406L98 419L113 425L108 407M403 338L406 343M235 341L241 340L251 350L251 357L243 363L229 378L239 385L237 401C230.164 407.624 222.645 418.819 220 428L217 431L213 440L224 473L220 476L205.761 465.816L187 442C187.717 437.359 184.935 434.448 182 431L183 425L175 421L181 431M96 343L100 347L125 451C161.376 463.206 197.325 482.569 232 499C235.852 487.229 223.848 475.229 229 463L219 429M179 350L174 352L165 363M225 350L216 358L205 353L193 360L187 359C179.349 364.973 176.77 374.569 176 384L183 389L192 387L183 381L184 368L193 361M217 357L233 372M190 385L190 373L209 358L216 362L199 379L199 385L200 385L200 390L192 395L199 400L206 378L211 374L210 377M227 363L213 373L212 374L214 374M247 364L250 366M241 365L244 369L259.33 422L268 443L319 413L298 443L299 440M164 368L151 409L156 411L173 419L184 389M337 392C356.163 397.438 381.796 399.078 399 409L383 430L322 410C328.261 398.239 337.058 389.685 347 381L381 389L417 370M420 371L427 392L421 400L416 400L382 389M60 374L64 386M214 374L226 376L227 377L228 377L229 377M201 384L206 378M27 380C32.2388 388.521 38.0731 396.705 43.6698 405C46.5239 409.23 48.4739 413.214 54 412L56 410M218 474L203 442C210.534 422.03 209.342 399.989 225 384L235 383M198 386L197 390M193 388L196 389M188 406L186 408L189 403L192 395M69 401L66 406M399 408L415 401L414 409L425 419L431 414L440 428L434 433L445.695 457L471 501L477 495C480.107 500.004 482.268 506.131 481 512C482.969 518.66 482.097 525.829 479 532L472 554L467 549L456 562L462 571C457.977 575.597 453.312 579.712 447 580L432 585L430 574L417 579L400 584L402 595L417 590L417 579M422 401L431 414M238 402L247.116 436L256 463L260 463L297 442M185 409L178 422M187 409L184 424M322 410L319 413M399 410L403 415L413 410M154 413C163.055 425.596 171.424 437.513 187 442M402 419L401 421L413 414L418 418C421.901 430.305 417.032 440.335 407 448L403 449L398 447L397 446L394 430L378 453L370 445C351.868 440.805 326.84 435.747 311 426M403 415L401 417M98 419L87 432L117 447L114 426M173 419L175 421M425 420L434 434M399 422L396 430M384 429L390 434M394 429L394 430M441 430C445.254 440.218 459.088 453.311 450 463L450 463M383 431L372 448M87 432L77 444C86.2422 450.524 100.986 457.462 112 460L119 464M185 432L202 442M302 442C324.026 449.451 348.085 456.73 367 470L378 454M298 443L275 474L338 498L312 534L251 506L247 509L240 512L214 500L203 502L203 495L189 498L190 505L202 503M447 443L442 448M77 444L67 458L67 463L102 476L111 481L110 479M119 448L121 455L125 451M371 449L361 464M119 451L112 459M122 455L121 461L120 462L120 463M125 457L134 461L120 465M288 457C304.877 469.911 330.493 470.467 349 481L360 466M457 459L463 471L477 495M229 463L242 460L252 487L271 478L260 492L238 504L234 499M135 461L134 463M111 462L103 474M137 462L140 463L141 467C154.997 479.467 148.857 498.193 133 505L133 506L136 507L146 507L160 505L175 500L189 498M66 464C66 471.648 65.8371 478.295 70 485C79.7019 484.906 93.6593 493.15 102 498L101 483L102 476M138 464L140 466M142 464L188 483.579L204 490M117 466L119 467M117 468L112 477M367 470L349 498L353 496L358 495L366 500C371.257 513.651 368.903 526.777 356 535L350 535L346 533L344 531L341 508L330 523L326 517M463 471L458 477M275 475L272 477M436 570L436 572L428 572L427 572C419.511 569.724 413.352 568.649 407.09 563.331C380.645 540.873 396.42 501.958 417 483L426 479C460.882 476.247 474.853 510.203 465.254 540C463.103 546.676 459.341 552.67 454.825 557.999C452.943 560.22 449.678 562.531 452 565L453 564L454 563L455 562M111 481C111.283 494.636 118.985 504.389 133 505M349 481L338 497L344 504L349 498M351 481L351 483L353 487M109 482L110 488M70 485C74.6853 495.019 88.0773 500.536 97 506.343C101.086 509.003 105.122 512.417 110 513L114 517L120 518L131 515C136.639 516.62 142.286 515.404 147 512L146 507M110 488C110.522 499.963 116.908 506.899 129 507L131 509L131 515M265 490L324 516M206 491L234 502M204 492L211 500M260 492L250 506M103 498L110 498M104 499L110 512M176 501L178 508L189 504M471 501C472.218 506.903 472.167 515.843 480 512M238 504L238 507L239 511M344 504L343 508M160 505L162 511L176 508M119 506L113 515M133 506L131 508M161 510L147 513M247 510L239 522L307 556L318 540L330 524M474 516L474 531L467 548M239 522L229 538L228 552L289 579L297 578L306 556M475 531L479 532M318 540L313 534L300 552M337 546C347.546 552.25 349.629 557.911 353 569C350.115 578.12 348.68 586.977 340.96 593.671C331.006 602.303 314.614 604.155 307.417 590.999C303.666 584.141 304.683 577.372 305 570C312.311 556.343 320.259 546.139 337 546M227 553L230 574L232 576L291 605L297 600L298 579M299 553L290 578M472 554L463 571M451 565L446 566L449 564M448 567L443 569L446 566M439 572L440 569L443 568M438 570L440 569M444 571L447 580M431 575L434 573M234 577C236.885 583.187 242.45 586.958 248 590.667C260.932 599.309 278.381 610.659 294 613L291 605M289 579L290 604M401 594L387 599L386 588L400 584M417 590L431 586M386 600L371 605L369 593L386 588M369 605L354 610L353 598L369 593M294 613L301 618L306 606L319 608L335 603L353 598M297 599L306 606M335 603L335 615L353 609M319 608L320 620L334 616M303 619L318 620"/>
</svg>
